<svg width="48" height="48" viewBox="0 0 53.5217 53.5217" fill="none" xmlns="http://www.w3.org/2000/svg">
  <path d="M48.2442 0H5.27747C2.36281 0 0 2.36281 0 5.27747V48.2442C0 51.1589 2.36281 53.5217 5.27747 53.5217H48.2442C51.1589 53.5217 53.5217 51.1589 53.5217 48.2442V5.27747C53.5217 2.36281 51.1589 0 48.2442 0Z" fill="#0071EE"/>
  <path fill-rule="evenodd" clip-rule="evenodd" d="M37.4652 10.704C38.5238 10.704 39.5587 11.0181 40.4387 11.6059C41.3187 12.1937 42.005 13.0299 42.4101 14.0076C42.8151 14.9853 42.9212 16.0615 42.7149 17.0998C42.5086 18.1381 41.9983 19.0914 41.2505 19.84C40.5019 20.5886 39.5486 21.0981 38.5103 21.3044C37.472 21.5108 36.3958 21.4046 35.4181 20.9996C34.4404 20.5945 33.6042 19.9082 33.0164 19.0282C32.4286 18.1482 32.1145 17.1133 32.1145 16.0548C32.1145 14.635 32.6787 13.2741 33.6825 12.2703C34.6863 11.2665 36.0471 10.7023 37.4669 10.7023L37.4652 10.704Z" fill="#FCFCFC"/>
  <path d="M13.6606 11.2692C16.3018 9.94774 19.5197 11.0195 20.8411 13.6606L31.5501 35.0646C32.8715 37.7057 31.8006 40.9233 29.1587 42.2451C26.5175 43.5665 23.2996 42.4948 21.9782 39.8536L11.2688 18.4489C9.94739 15.8078 11.0184 12.5902 13.6602 11.2684L13.6606 11.2692Z" fill="#FCFCFC"/>
</svg>
